<?xml version="1.0" standalone="no"?>
<!DOCTYPE svg PUBLIC "-//W3C//DTD SVG 20010904//EN"
 "http://www.w3.org/TR/2001/REC-SVG-20010904/DTD/svg10.dtd">
<svg version="1.0" xmlns="http://www.w3.org/2000/svg"
 width="660.000000pt" height="500.000000pt" viewBox="0 0 660.000000 500.000000"
 preserveAspectRatio="xMidYMid meet">
<metadata>
Created by potrace 1.15, written by Peter Selinger 2001-2017
</metadata>
<g transform="translate(0.000000,500.000000) scale(0.100000,-0.100000)"
fill="#000000" stroke="none">
<path d="M1899 4391 c-20 -20 -29 -39 -29 -61 0 -41 47 -90 87 -90 28 0 101
-66 463 -416 l84 -83 -17 -33 c-9 -18 -28 -53 -42 -76 -62 -105 -105 -284
-105 -437 0 -160 29 -285 100 -431 22 -45 40 -86 40 -91 0 -6 -89 -95 -197
-200 -290 -278 -298 -284 -335 -289 -50 -7 -81 -48 -75 -97 7 -54 28 -72 83
-72 54 0 84 28 84 77 0 23 11 41 43 72 210 205 441 421 450 424 7 1 44 -28 83
-66 71 -68 175 -143 249 -177 61 -28 139 -54 147 -49 5 3 8 199 8 436 0 304 4
442 12 470 37 123 199 207 318 165 86 -30 150 -94 178 -176 8 -24 12 -164 12
-462 0 -235 4 -430 8 -433 15 -9 155 58 234 112 43 29 107 80 143 114 l66 61
97 -94 c53 -52 163 -158 245 -237 118 -114 147 -148 147 -170 1 -31 16 -54 47
-70 35 -19 63 -14 94 17 57 58 23 151 -55 151 -35 0 -15 -17 -333 288 l-193
184 26 42 c100 163 154 340 154 501 -1 174 -67 391 -162 527 -10 14 -18 32
-18 40 0 13 86 98 431 425 53 51 72 63 98 63 70 0 106 86 60 144 -44 56 -149
22 -149 -49 0 -31 0 -32 -308 -325 -101 -96 -187 -177 -193 -178 -5 -2 -35 19
-66 48 -67 61 -148 116 -223 152 -102 49 -132 59 -265 83 -276 51 -588 -46
-798 -249 -32 -31 -62 -56 -69 -56 -6 0 -92 78 -192 173 -323 308 -326 311
-326 343 -1 33 -15 56 -47 72 -35 19 -63 14 -94 -17z"/>
<path d="M3272 3033 c-19 -9 -38 -31 -50 -56 -21 -46 -75 -256 -91 -352 -29
-180 -36 -213 -48 -249 -7 -22 -11 -41 -8 -44 3 -3 19 5 36 17 35 26 56 22 65
-14 8 -32 27 -32 48 0 21 33 31 32 46 -5 7 -16 16 -30 21 -30 5 0 15 14 24 30
19 36 25 37 55 5 13 -14 27 -25 32 -25 5 0 13 11 18 25 11 28 21 31 50 13 26
-17 30 -9 21 37 -5 22 -14 99 -21 170 -7 72 -19 155 -27 185 -8 30 -18 69 -23
85 -14 57 -61 190 -71 201 -16 20 -45 22 -77 7z"/>
<path d="M1080 1721 c-66 -11 -120 -59 -120 -106 0 -34 49 -71 124 -94 91 -28
111 -51 69 -78 -18 -12 -41 -17 -68 -15 -120 9 -120 9 -123 -18 -2 -21 3 -27
37 -37 51 -16 132 -17 168 -1 53 23 73 48 73 94 0 37 -5 46 -32 66 -18 13 -51
30 -73 37 -80 25 -95 33 -95 52 0 28 35 41 107 38 60 -2 68 0 77 20 5 13 6 25
0 30 -12 11 -101 19 -144 12z"/>
<path d="M4335 1725 c-5 -2 -22 -6 -37 -9 -97 -22 -148 -158 -97 -263 19 -39
19 -44 5 -59 -26 -25 -19 -37 17 -30 37 8 50 8 129 0 47 -5 66 -2 104 16 91
44 130 160 84 249 -20 40 -20 44 -5 67 14 22 14 25 0 30 -8 4 -28 1 -43 -5
-18 -7 -40 -8 -67 -1 -40 10 -71 11 -90 5z m83 -69 c2 -3 0 -11 -5 -19 -14
-26 -134 -157 -143 -157 -5 0 -13 16 -19 35 -17 63 16 127 73 145 28 8 84 6
94 -4z m66 -68 c24 -93 -29 -168 -119 -168 -59 0 -54 22 25 110 40 44 76 80
80 80 4 0 10 -10 14 -22z"/>
<path d="M1762 1543 l3 -178 25 0 c24 0 25 3 30 75 l5 75 93 3 92 3 0 -69 c0
-76 13 -99 50 -87 19 6 20 14 20 181 l0 175 -32 -3 -33 -3 -3 -68 -3 -68 -92
3 -92 3 -3 68 -3 67 -30 0 -29 0 2 -177z"/>
<path d="M2701 1698 c-5 -13 -34 -86 -65 -163 -31 -76 -56 -148 -56 -158 0
-35 42 -15 70 33 l26 45 67 3 67 3 22 -46 c22 -46 59 -68 79 -48 5 5 -17 75
-59 178 l-68 170 -37 3 c-31 3 -38 -1 -46 -20z"/>
<path d="M3407 1713 c-4 -3 -7 -79 -7 -168 0 -134 3 -165 15 -175 20 -17 169
-7 220 15 136 56 140 265 6 321 -34 14 -221 20 -234 7z m230 -88 c33 -33 35
-39 31 -86 -7 -67 -35 -95 -110 -111 -83 -17 -88 -10 -88 117 0 56 3 105 7
108 3 4 33 7 66 7 54 0 62 -3 94 -35z"/>
<path d="M5003 1703 c17 -61 89 -279 101 -308 15 -35 37 -44 64 -27 12 8 42
82 79 195 25 74 33 66 74 -73 29 -99 46 -130 68 -130 18 0 51 29 51 46 0 12
92 248 111 287 11 20 -6 31 -42 25 -22 -3 -31 -20 -85 -177 -26 -76 -30 -80
-48 -37 -9 21 -16 41 -16 44 0 3 -12 43 -26 89 -25 81 -26 83 -58 83 -28 0
-34 -5 -45 -37 -24 -72 -74 -198 -82 -207 -4 -4 -21 39 -39 95 -45 150 -45
149 -81 149 -25 0 -30 -3 -26 -17z"/>
<path d="M496 1120 c-83 -42 -116 -91 -116 -173 0 -58 23 -104 70 -139 30 -22
127 -48 178 -48 50 0 105 -29 116 -62 14 -39 -12 -72 -68 -88 -57 -16 -133 0
-193 41 -23 16 -46 29 -50 29 -15 0 -73 -65 -73 -82 0 -24 67 -76 130 -99 71
-27 224 -24 282 5 86 42 125 109 115 199 -13 102 -88 160 -229 176 -100 11
-132 27 -136 67 -7 69 107 99 200 54 23 -11 47 -20 52 -20 14 0 76 58 76 70 0
15 -41 48 -86 70 -61 28 -211 28 -268 0z"/>
<path d="M3850 1129 c-97 -27 -166 -84 -212 -178 -19 -38 -22 -62 -22 -146 0
-117 20 -172 89 -240 71 -71 225 -103 336 -71 60 18 139 64 139 81 -1 14 -68
85 -81 85 -5 0 -29 -10 -52 -22 -56 -29 -157 -30 -207 -1 -119 67 -119 260 -1
340 48 32 156 33 212 1 l39 -22 40 39 c22 22 40 43 40 47 0 4 -18 21 -41 37
-73 53 -190 74 -279 50z"/>
<path d="M3337 1121 c-6 -2 -42 -33 -80 -70 -61 -59 -67 -69 -62 -96 6 -28 25
-85 31 -94 2 -2 19 8 38 23 19 14 37 26 40 26 3 0 7 -91 8 -202 l3 -203 70 0
70 0 3 308 c2 242 0 307 -10 308 -66 3 -100 3 -111 0z"/>
<path d="M980 1111 c0 -12 84 -147 164 -266 l61 -90 3 -128 4 -128 66 3 67 3
5 125 5 125 105 155 c58 85 113 167 123 182 l19 28 -84 0 -83 -1 -73 -114
c-41 -63 -77 -115 -81 -115 -7 0 -39 49 -114 178 l-31 52 -78 0 c-43 0 -78 -4
-78 -9z"/>
<path d="M1740 810 l0 -310 70 0 70 0 0 185 c0 102 3 185 8 185 4 -1 30 -30
57 -66 28 -37 79 -103 115 -149 36 -46 78 -99 93 -119 26 -34 31 -36 87 -36
l60 0 0 310 0 310 -71 0 -72 0 5 -190 c3 -105 2 -189 -3 -188 -7 3 -91 109
-189 238 -14 19 -44 57 -68 87 l-43 53 -60 0 -59 0 0 -310z"/>
<path d="M2520 810 l0 -310 165 0 c187 0 247 14 301 72 72 77 94 136 94 246 0
136 -65 240 -177 282 -46 17 -78 20 -218 20 l-165 0 0 -310z m341 164 c57 -34
79 -76 79 -157 0 -78 -24 -134 -69 -164 -32 -21 -211 -33 -211 -14 0 6 -1 83
-1 171 0 88 1 167 1 176 0 25 154 15 201 -12z"/>
<path d="M4527 1083 c-8 -21 -29 -67 -45 -103 -27 -60 -43 -94 -92 -205 -10
-22 -28 -62 -40 -90 -13 -27 -35 -78 -51 -112 -15 -34 -25 -64 -22 -67 4 -3
37 -6 74 -6 l67 0 23 50 23 50 160 -2 161 -3 22 -47 23 -48 71 0 c70 0 71 0
65 24 -3 13 -24 63 -47 112 -22 49 -46 103 -54 119 -63 144 -78 176 -129 288
l-35 77 -79 0 -80 0 -15 -37z m122 -165 c30 -66 71 -171 71 -180 0 -10 -187
-11 -193 0 -4 6 67 180 86 210 12 18 15 16 36 -30z"/>
<path d="M5010 1061 l0 -60 93 -3 92 -3 3 -247 2 -248 70 0 70 0 0 250 0 249
93 3 92 3 0 55 0 55 -257 3 -258 2 0 -59z"/>
<path d="M5682 813 l3 -308 238 -3 238 -2 -3 62 -3 63 -165 5 -165 5 0 55 0
55 130 2 c183 4 177 1 173 71 l-3 57 -152 3 -153 3 0 48 c0 28 6 53 13 59 8 7
73 13 163 14 l149 3 0 55 0 55 -233 3 -232 2 2 -307z"/>
</g>
</svg>
